<?xml version="1.0" encoding="UTF-8" standalone="no"?>
<!-- Uploaded to: SVG Repo, www.svgrepo.com, Generator: SVG Repo Mixer Tools -->

<svg
   fill="#000000"
   version="1.1"
   id="Layer_1"
   width="783.05078"
   height="776.27112"
   viewBox="0 0 68.516943 67.923723"
   enable-background="new 0 0 70 70"
   xml:space="preserve"
   sodipodi:docname="favicon.svg"
   inkscape:export-filename="favicon_whitebg.svg"
   inkscape:export-xdpi="96"
   inkscape:export-ydpi="96"
   xmlns:inkscape="http://www.inkscape.org/namespaces/inkscape"
   xmlns:sodipodi="http://sodipodi.sourceforge.net/DTD/sodipodi-0.dtd"
   xmlns="http://www.w3.org/2000/svg"
   xmlns:svg="http://www.w3.org/2000/svg"><defs
   id="defs13" /><sodipodi:namedview
   id="namedview11"
   pagecolor="#ffffff"
   bordercolor="#000000"
   borderopacity="0.25"
   inkscape:showpageshadow="2"
   inkscape:pageopacity="0.0"
   inkscape:pagecheckerboard="0"
   inkscape:deskcolor="#d1d1d1"
   showgrid="false" />

<ellipse
   style="fill:#ffffff;stroke-width:0;stroke-linejoin:round;stroke-miterlimit:5.4;stroke-dashoffset:2.16189"
   id="path346"
   cy="33.961861"
   cx="34.258472"
   rx="34.258472"
   ry="33.961861" /><g
   id="g8"
   transform="matrix(0.80535094,0,0,1,5.9228916,1.1864397)"
   style="fill:#bd5d38;fill-opacity:1">
	<path
   d="m 65.635,24.988 -30,-10.037 c -0.412,-0.139 -0.857,-0.139 -1.27,0 l -30,10.037 C 3.539,25.265 2.987,26.044 3,26.915 3.013,27.786 3.589,28.549 4.423,28.8 l 8.16,2.458 v 6.627 c 0,0.498 0.403,0.979 0.739,1.348 0.185,0.203 1.385,1.24 2.549,1.715 0.248,0.102 0.503,0.149 0.755,0.149 0.789,0 1.428,-0.471 1.744,-1.246 0.417,-1.022 -0.183,-2.189 -1.205,-2.606 -0.093,-0.038 0.418,-0.126 -0.582,-0.234 v -4.535 l 3,0.92 V 49.525 C 18.645,50.032 18,51.013 18,52.153 c 0,1.656 1.343,3 3,3 1.657,0 3,-1.344 3,-3 0,-0.55 -0.159,-1.059 -0.417,-1.501 v -16.03 l 3.858,1.183 7,2.037 c 0.183,0.054 0.371,0.08 0.559,0.08 0.194,0 0.389,-0.028 0.577,-0.085 l 16.006,-4.822 v 4.465 c -1,1.22 -6.533,4.442 -17.287,4.442 -2.417,0 -4.24,-0.116 -6.02,-0.356 -1.096,-0.138 -2.102,0.621 -2.249,1.716 -0.147,1.095 0.621,2.102 1.715,2.249 1.958,0.264 4.173,0.392 6.77,0.392 15.159,0 20.533,-5.938 20.763,-6.19 0.336,-0.368 0.307,-0.849 0.307,-1.348 v -6.349 c 0,-0.075 -0.014,-0.146 -0.022,-0.219 L 65.577,28.8 c 0.834,-0.251 1.409,-1.014 1.423,-1.885 0.013,-0.871 -0.539,-1.65 -1.365,-1.927 z m -30.645,8.848 -6.404,-1.863 -2.53,-0.776 9.887,-3.468 c 1.041,-0.37 1.774,-1.515 1.403,-2.555 -0.371,-1.041 -1.571,-1.584 -2.61,-1.213 L 21.129,28.77 c -0.352,0.125 -0.689,0.345 -0.962,0.621 L 15.468,27.95 11.603,26.786 35,18.957 58.397,26.785 Z"
   id="path2"
   style="fill:#bd5d38;fill-opacity:1" />
	<path
   d="m 40.61,30.482 c 0.096,0 0.193,-0.014 0.289,-0.043 L 45.677,29 c 0.529,-0.159 0.829,-0.717 0.669,-1.245 -0.159,-0.528 -0.717,-0.834 -1.245,-0.669 l -4.778,1.439 c -0.528,0.159 -0.828,0.717 -0.669,1.245 0.13,0.433 0.527,0.712 0.956,0.712 z"
   id="path4"
   style="fill:#bd5d38;fill-opacity:1" />
	<path
   d="m 48.887,28.074 c 0.095,0 0.192,-0.014 0.288,-0.043 l 2.227,-0.671 c 0.529,-0.159 0.829,-0.717 0.669,-1.245 -0.159,-0.528 -0.716,-0.832 -1.245,-0.669 l -2.227,0.671 c -0.529,0.159 -0.829,0.717 -0.669,1.245 0.13,0.433 0.527,0.712 0.957,0.712 z"
   id="path6"
   style="fill:#bd5d38;fill-opacity:1" />
</g></svg>
